<svg width="138" height="22" viewBox="0 0 138 22" fill="none" xmlns="http://www.w3.org/2000/svg">
<path d="M130.325 9.79236V12.6518H132.335V15.4889C132.34 15.7062 132.331 15.9381 132.3 16.1377L132.283 16.2346C132.28 16.2562 132.276 16.2784 132.271 16.3012L132.255 16.371C132.252 16.3828 132.249 16.3948 132.245 16.4069L132.222 16.4805C132.041 17.0029 131.497 17.6649 130.274 17.6649C128.972 17.6649 128.45 16.9049 128.307 16.371L128.29 16.3012L128.277 16.2346C128.241 16.0158 128.226 15.7424 128.226 15.4889V6.52805C128.226 6.24631 128.243 5.94089 128.294 5.69208L128.328 5.54088C128.331 5.53041 128.333 5.51976 128.336 5.50896L128.355 5.44237C128.359 5.43099 128.362 5.41948 128.366 5.40784L128.391 5.33666C128.577 4.84156 129.068 4.18217 130.264 4.18217C131.187 4.18217 131.683 4.55819 131.949 4.94683L131.996 5.01976C132.011 5.04405 132.025 5.06832 132.038 5.09245L132.075 5.16437L132.108 5.23499L132.136 5.30378L132.161 5.3702L132.181 5.43373L132.198 5.49382L132.212 5.54995L132.224 5.60158C132.229 5.62726 132.234 5.65452 132.238 5.68286L132.25 5.77064C132.251 5.78564 132.253 5.80079 132.255 5.81602L132.267 5.95365L132.275 6.08565L132.282 6.26563L132.283 6.35786V7.44597H137.221L137.222 6.76862L137.225 6.52638L137.224 6.3386L137.22 6.11995L137.216 6.00224L137.207 5.81877L137.195 5.63082L137.184 5.50516C136.85 2.19501 134.362 0.921454 131.334 0.699845L131.132 0.686618L130.928 0.676444C130.825 0.672109 130.722 0.668894 130.619 0.666763L130.411 0.663936C130.377 0.663585 130.342 0.663585 130.307 0.663585L130.099 0.665005C130.065 0.66548 130.03 0.666075 129.995 0.666792L129.789 0.672558L129.585 0.681302L129.381 0.693085L129.18 0.707972C129.113 0.713459 129.046 0.719473 128.98 0.726026L128.782 0.74731C128.749 0.75113 128.717 0.755087 128.684 0.759183L128.489 0.78543C128.037 0.850602 127.602 0.943444 127.189 1.06757L127.014 1.1227C125.101 1.75037 123.71 3.08486 123.425 5.50516L123.395 5.77382L123.375 5.98183L123.356 6.19992L123.341 6.41689C123.332 6.55867 123.326 6.69226 123.326 6.80272L123.326 15.1515L123.328 15.2552L123.332 15.4127L123.337 15.5231L123.344 15.641L123.353 15.7692L123.364 15.9105L123.386 16.1529L123.404 16.3388C123.681 19.4148 126.013 20.7832 128.865 21.106L129.065 21.1269C129.4 21.1588 129.741 21.1768 130.086 21.1819L130.294 21.1834L130.502 21.1819C130.849 21.1768 131.192 21.1588 131.528 21.1269L131.728 21.106C134.59 20.7832 136.907 19.4148 137.188 16.3388L137.211 16.0676L137.228 15.8381L137.243 15.5809L137.252 15.3594L137.26 15.0458V9.79236H130.325ZM96.2784 1.19102H91.3197V15.6956C91.3275 15.9484 91.3197 16.2323 91.2762 16.4406L91.2616 16.5037L91.2435 16.5709C91.2368 16.5939 91.2296 16.6175 91.2216 16.6415L91.1957 16.7151C91.0086 17.2138 90.5321 17.8645 89.392 17.8645C88.3229 17.8645 87.8348 17.2772 87.6303 16.7909L87.6004 16.7151C87.5958 16.7026 87.5913 16.6903 87.5871 16.678L87.5637 16.6058L87.5444 16.5368C87.5415 16.5256 87.5387 16.5145 87.5362 16.5037L87.5225 16.4406C87.4729 16.2323 87.4666 15.9484 87.4729 15.6956V1.19102H82.5157V15.2455L82.5148 15.3584L82.5166 15.556L82.5235 15.8467L82.5371 16.2L82.5466 16.3779L82.553 16.4723L82.5593 16.5418C82.8022 19.142 84.3277 20.4955 86.482 21.0618L86.6656 21.1078C87.0664 21.2035 87.4877 21.2732 87.9255 21.3197L88.1287 21.3396L88.3341 21.3562L88.5417 21.3697C88.6461 21.3756 88.7512 21.3804 88.857 21.3841L89.0696 21.3899L89.2841 21.3928C89.32 21.3932 89.356 21.3932 89.392 21.3932L89.6078 21.3917C89.6436 21.3912 89.6794 21.3906 89.715 21.3899L89.928 21.3841C90.034 21.3804 90.1393 21.3756 90.2438 21.3697L90.4518 21.3562L90.6575 21.3396L90.861 21.3197C93.7612 21.0117 95.9367 19.6914 96.2363 16.5418L96.2403 16.5105L96.2484 16.4279L96.2604 16.2634L96.2711 16.0642L96.277 15.9203L96.2831 15.6995L96.2848 15.556L96.2842 15.4212L96.2811 15.2997C96.2803 15.2808 96.2794 15.2627 96.2784 15.2455V1.19102ZM50.7176 1.19102L48.2441 16.5171L45.772 1.19102H37.7734L37.3492 20.7975H42.2494L42.3821 2.64719L45.7537 20.7975H50.7254L54.1 2.64719L54.2331 20.7975H59.1457L58.7071 1.19102H50.7176ZM21.1029 1.19102L17.4711 20.7975H22.7673L25.5042 2.64719L28.1754 20.7975H33.4348L29.8181 1.19102H21.1029ZM113.608 16.9765L108.991 1.19102H101.715V20.5931H106.528L106.249 4.30251L111.207 20.5931H118.185V1.19102H113.341L113.608 16.9765ZM69.0874 6.29367C69.0003 5.90646 69.0255 5.49509 69.0705 5.28009C69.0833 5.22303 69.0984 5.1655 69.1162 5.10806L69.1449 5.02203C69.3405 4.47849 69.7981 3.96792 70.8475 3.96792C71.9799 3.96792 72.6438 4.67385 72.6438 5.73325V6.93213H77.4775V5.56558C77.4775 2.48169 75.4592 1.29538 73.3025 0.879595L73.125 0.847133L72.9471 0.818002L72.769 0.792062L72.591 0.769176L72.4133 0.749203L72.2361 0.732006C72.1772 0.72672 72.1184 0.721874 72.0597 0.717443L71.8843 0.705378L71.7102 0.69567L71.5375 0.688181L71.3665 0.682771L71.1974 0.679302L70.9479 0.677432L70.8379 0.677819L70.6192 0.68094C70.5829 0.681723 70.5467 0.682638 70.5106 0.683686L70.2948 0.691581C70.2231 0.694752 70.1518 0.698464 70.0809 0.702726L69.8692 0.71717C66.9203 0.942746 64.619 2.15405 64.1587 4.99459C64.0225 5.85963 63.9888 6.6275 64.2056 7.60734C64.5468 9.21749 65.8881 10.3633 67.4278 11.3243L67.6661 11.4707C67.7061 11.4949 67.7461 11.519 67.7863 11.5429L68.0281 11.6854L68.2714 11.8255L68.5156 11.9636L68.8821 12.1671L69.845 12.6948L70.0789 12.8245L70.3089 12.9538L70.5342 13.0829L70.7541 13.212C71.8035 13.8365 72.6443 14.4699 72.9469 15.2271C73.1143 15.6769 73.0777 16.244 72.9967 16.6058L72.9829 16.6641C72.9629 16.7511 72.9377 16.8381 72.9061 16.9237L72.8722 17.0087C72.6496 17.529 72.1628 17.9725 71.0932 17.9725C69.8731 17.9725 69.1388 17.2711 69.1388 16.214L69.1373 14.3323H63.9344V15.828C63.9344 19.3386 66.1617 20.8635 68.9512 21.3163L69.1588 21.3479C69.2979 21.3676 69.4382 21.3849 69.5796 21.3996L69.7925 21.4199C70.0418 21.4415 70.294 21.4558 70.5481 21.4633L70.7664 21.4681C70.8028 21.4686 70.8393 21.469 70.8758 21.4693L70.9854 21.4697C71.0584 21.4697 71.1311 21.4692 71.2035 21.4681L71.4198 21.4634C71.4557 21.4623 71.4916 21.4611 71.5273 21.4598L71.741 21.4503C71.8119 21.4465 71.8825 21.4423 71.9527 21.4374L72.1624 21.4213C72.3015 21.4094 72.4392 21.3952 72.5753 21.3788L72.7783 21.3524L72.9788 21.3225C73.0453 21.3119 73.1113 21.3008 73.1769 21.289L73.3723 21.2519C75.7336 20.7788 77.4905 19.496 77.8433 17.0294C77.8919 16.6615 77.9218 16.3218 77.9379 16.0112L77.9466 15.8085C77.9478 15.7755 77.9487 15.7428 77.9496 15.7104L77.9528 15.5208V15.34L77.9498 15.1681L77.9442 15.0051L77.9363 14.8511C77.9348 14.8262 77.9332 14.8017 77.9316 14.7775L77.9208 14.6372L77.9086 14.5061L77.8952 14.3842L77.8737 14.2188L77.8514 14.0746L77.8223 13.9157L77.8088 13.8507C77.4684 12.1433 75.9736 10.9374 74.313 9.94469L74.0748 9.8043L73.8349 9.66663L73.594 9.53148L73.2324 9.33309L72.7527 9.07568L71.9346 8.64056L71.598 8.45843C71.5612 8.4383 71.5246 8.4182 71.4882 8.39813L71.2728 8.278L71.0635 8.15835C70.0332 7.56096 69.2544 6.9744 69.0874 6.29367ZM5.32371 6.24558C5.23473 5.87502 5.24864 5.48522 5.29429 5.25871L5.31319 5.1739L5.33463 5.08998C5.49793 4.50124 5.9444 3.89441 7.09836 3.89441C8.24512 3.89441 8.92034 4.60713 8.92034 5.6751V6.88857H13.8108V5.5112C13.8108 2.56832 11.98 1.3324 9.93423 0.848937L9.75583 0.80877C9.60679 0.77684 9.45686 0.748715 9.30666 0.724033L9.12633 0.696044L8.94598 0.67122L8.76585 0.649423L8.58617 0.630512C8.52637 0.624674 8.4667 0.619294 8.40717 0.614348L8.2291 0.600792L8.05219 0.589704L7.87667 0.580945L7.70278 0.574375L7.53076 0.569855L7.27675 0.566406H7.19327C7.11996 0.566406 7.04692 0.566919 6.97418 0.567952L6.75688 0.572621C6.61263 0.576787 6.46964 0.583068 6.32802 0.591532L6.11665 0.605873C6.0816 0.608538 6.04664 0.611343 6.01177 0.614286L5.80369 0.633631C5.73471 0.640642 5.66611 0.64822 5.59791 0.656373L5.39454 0.682563C5.22609 0.705839 5.06024 0.732758 4.89724 0.76345L4.70302 0.802099L4.51162 0.844421L4.32315 0.890464C4.26083 0.906438 4.19901 0.92304 4.1377 0.940279L3.95536 0.993915C2.05744 1.57733 0.689691 2.80092 0.344426 4.9241C0.201931 5.80299 0.17751 6.57614 0.383449 7.56681C0.746013 9.27878 2.22473 10.471 3.87906 11.4728L4.12231 11.6181C4.16302 11.6421 4.20381 11.6659 4.24466 11.6897L4.49044 11.8314L4.86053 12.0399L5.3532 12.3117L6.0799 12.7099L6.43293 12.9064L6.77611 13.1022L6.99835 13.2328C7.03491 13.2545 7.07122 13.2763 7.10726 13.2981L7.32024 13.4291C8.22848 13.998 8.93981 14.5839 9.21439 15.2709C9.39423 15.7176 9.35217 16.2845 9.26719 16.6581L9.25266 16.7185C9.23168 16.8045 9.2059 16.8905 9.17404 16.9752L9.14009 17.0594C8.91164 17.5889 8.42133 18.043 7.33778 18.043C6.11298 18.043 5.38036 17.3295 5.38036 16.2578L5.37356 14.3711H0.112305V15.8703C0.112305 20.0786 3.28519 21.4618 6.79905 21.5657L7.01908 21.5706L7.23985 21.5722L7.45815 21.5706C7.56688 21.5691 7.67497 21.5663 7.78236 21.5624L7.99621 21.553C8.10265 21.5474 8.20837 21.5407 8.3133 21.5327L8.5221 21.5151L8.72871 21.4941C8.79721 21.4865 8.86533 21.4784 8.93305 21.4697L9.13502 21.4419C9.20193 21.4321 9.26843 21.4216 9.33451 21.4106L9.53144 21.3757C11.9767 20.9179 13.7991 19.6208 14.166 17.0838C14.2165 16.7214 14.2481 16.3861 14.2658 16.0788L14.2755 15.8781L14.2815 15.6858C14.2829 15.6231 14.2837 15.5618 14.284 15.5019L14.2833 15.3265L14.2799 15.1596L14.274 15.0014L14.2659 14.8518L14.256 14.7109L14.2446 14.5788L14.2255 14.3973L14.2049 14.2359L14.177 14.0523L14.1453 13.8744C13.8061 12.1872 12.3559 10.9869 10.7243 9.99971L10.4844 9.85673C10.4442 9.83314 10.404 9.80967 10.3636 9.78632L10.121 9.64754L9.87743 9.51133L9.63351 9.37749L9.38991 9.24584L8.3151 8.67531L7.97139 8.4911L7.74818 8.3694L7.53048 8.24835L7.31892 8.12778C7.28421 8.10771 7.24979 8.08765 7.21565 8.0676L7.01454 7.94737C6.1265 7.40644 5.47441 6.86524 5.32371 6.24558Z" fill="#1428A0"/>
</svg>
