<svg width="138" height="26" viewBox="0 0 138 26" fill="none" xmlns="http://www.w3.org/2000/svg">
<path d="M3.65882 20.3177C2.63012 20.3199 1.67978 19.7684 1.1713 18.8742C0.670149 17.9855 0.700201 16.8927 1.24944 16.0329L6.37209 7.98859C6.90586 7.10841 7.87193 6.5835 8.90085 6.61459C9.92902 6.63923 10.8642 7.2157 11.3482 8.12316C11.8257 9.02614 11.7661 10.1125 11.1941 10.9602L6.07471 19.0044C5.54708 19.8266 4.63574 20.322 3.65882 20.3177Z" fill="#F62B54"/>
<path d="M12.4456 20.3173C11.4124 20.3173 10.4617 19.7649 9.96246 18.8771C9.46242 17.9908 9.49248 16.9008 10.0406 16.0434L15.1535 8.01754C15.6796 7.12472 16.6485 6.58749 17.6844 6.61424C18.7263 6.63703 19.6705 7.21984 20.1481 8.13149C20.6223 9.04315 20.5529 10.1361 19.9636 10.9815L14.8518 19.0073C14.3258 19.826 13.4187 20.3198 12.4456 20.3173Z" fill="#FFCC00"/>
<path d="M21.0357 20.3856C22.4923 20.3856 23.673 19.2296 23.673 17.8036C23.673 16.3777 22.4923 15.2217 21.0357 15.2217C19.5792 15.2217 18.3984 16.3777 18.3984 17.8036C18.3984 19.2296 19.5792 20.3856 21.0357 20.3856Z" fill="#00CA72"/>
<path d="M135.607 15.3702C136.403 15.3702 136.88 15.9368 136.88 16.8647V20.0446H137.962V16.792C137.962 15.214 137.218 14.299 135.82 14.299C135.273 14.299 134.405 14.4488 133.888 15.4549C133.642 14.8503 133.085 14.4292 132.437 14.3587C132.236 14.322 132.032 14.31 131.829 14.3229C131.384 14.3587 130.591 14.6355 130.295 15.2628V14.4195H129.212V20.0446H130.295V17.009C130.295 15.8282 131.068 15.3702 131.842 15.3702C132.567 15.3702 133.043 15.9248 133.043 16.8528V20.0446H134.12V17.009C134.12 16.0692 134.684 15.3594 135.607 15.3702ZM125.237 19.1048C125.731 19.1156 126.209 18.9181 126.555 18.5599C126.903 18.2018 127.087 17.7145 127.069 17.2142C127.069 16.0811 126.235 15.3702 125.237 15.3702C124.237 15.3702 123.405 16.0811 123.405 17.2142C123.385 17.7134 123.57 18.1996 123.915 18.5567C124.26 18.9148 124.735 19.1135 125.228 19.1048H125.237ZM125.237 20.1597C123.654 20.1597 122.333 18.9908 122.333 17.2077C122.333 15.4245 123.654 14.2925 125.237 14.2925C126.819 14.2925 128.151 15.4245 128.151 17.2077C128.151 18.9908 126.811 20.1651 125.229 20.1651L125.237 20.1597ZM116.76 17.2077L116.749 17.2142C116.749 15.431 118.105 14.299 119.698 14.2925C120.508 14.2769 121.286 14.605 121.84 15.1955L121.019 15.8944C120.667 15.5488 120.192 15.3581 119.698 15.3648C118.7 15.3648 117.832 16.0757 117.832 17.2077C117.832 17.9728 118.286 18.662 118.984 18.955C119.682 19.248 120.485 19.0852 121.019 18.5448L121.852 19.2437C121.296 19.8403 120.513 20.1732 119.698 20.1597C118.117 20.1597 116.76 18.9908 116.76 17.2077ZM113.295 18.9648C113.293 18.7662 113.369 18.5748 113.508 18.4327C113.647 18.2906 113.837 18.2095 114.035 18.2072C114.234 18.2095 114.423 18.2906 114.562 18.4327C114.701 18.5748 114.778 18.7662 114.775 18.9648C114.755 19.3601 114.431 19.6716 114.035 19.6756C113.639 19.6716 113.315 19.3601 113.295 18.9648Z" fill="#333333"/>
<path d="M116.256 7.26903H112.402L109.701 14.2334L107.014 7.26903H103.16L107.845 18.274L104.931 25.5499H108.757L116.256 7.26903ZM92.8177 13.3902C92.8177 15.1483 94.3545 16.3053 95.8642 16.3053C97.3478 16.3053 98.8053 15.2287 98.8053 13.3891C98.8053 11.5495 97.3478 10.4718 95.8642 10.4718C94.3545 10.4718 92.8177 11.6298 92.8177 13.3891V13.3902ZM98.8053 19.5352V18.1427C98.0239 19.3257 96.2006 19.7728 95.2651 19.7728C92.1676 19.7728 89.0691 17.3309 89.0691 13.3891C89.0691 9.44833 92.1665 7.00639 95.2651 7.00639C96.0454 7.00639 97.8687 7.26686 98.8053 8.63435V7.27337H102.398V19.5373L98.8053 19.5362V19.5352ZM88.0467 19.5352H84.4543V18.0114C83.8542 19.1401 82.3988 19.7978 80.888 19.7978C77.7634 19.7978 75.0035 17.3027 75.0035 13.439C75.0035 9.50259 77.7634 7.00422 80.888 7.00422C82.3966 7.00422 83.8563 7.63369 84.4543 8.7635V0.587891H88.0467V19.5352ZM84.3762 13.3619C84.3762 11.5234 83.0489 10.4457 81.5653 10.4457C80.0285 10.4457 78.7522 11.6016 78.7522 13.3619C78.7522 15.1787 80.0285 16.3292 81.5642 16.3292C83.076 16.3313 84.3762 15.1223 84.3762 13.3619ZM66.1214 13.045C66.1214 11.1805 67.0851 10.5499 68.3604 10.5499C69.5835 10.5499 70.4691 11.3639 70.4691 12.9918V19.533H74.0875V12.205C74.0875 8.71249 72.3684 7.00422 69.6345 7.00422C68.203 7.00422 66.7715 7.8182 66.1203 9.05327V7.26903H62.504V19.533H66.1214V13.045ZM55.1565 19.7435C51.7205 19.7435 48.8542 17.2224 48.8542 13.3609C48.8542 9.49716 51.7172 7.00096 55.1565 7.00096C58.5959 7.00096 61.4839 9.49716 61.4839 13.3609C61.4839 17.2245 58.5926 19.7446 55.1565 19.7446V19.7435ZM55.1565 16.1729C56.6651 16.1729 57.9165 15.068 57.9165 13.3619C57.9165 11.7068 56.6662 10.577 55.1565 10.577C54.4219 10.5655 53.7148 10.8563 53.2008 11.3813C52.6839 11.9089 52.4031 12.6236 52.4226 13.3619C52.4237 15.0702 53.6729 16.1729 55.1565 16.1729ZM42.3673 10.551C43.4341 10.551 44.3718 11.3921 44.3718 12.9929V19.5352H47.9642V12.5697C47.9642 8.8666 46.1637 7.00205 43.2779 7.00205C42.4205 7.00205 40.8055 7.26252 39.6334 9.18134C38.9562 7.76285 37.6549 7.02701 35.7317 7.02701C34.368 7.02007 33.1262 7.81116 32.5561 9.05002V7.27012H28.9355V19.5341H32.5529V13.045C32.5529 11.1805 33.5687 10.5499 34.6616 10.5499C35.7035 10.5499 36.639 11.3639 36.6662 12.9137V19.5341H40.2846V13.045C40.2846 11.2619 41.2223 10.5521 42.3673 10.5521V10.551Z" fill="#333333"/>
</svg>
