<svg width="47" height="46" viewBox="0 0 47 46" fill="none" xmlns="http://www.w3.org/2000/svg">
<path d="M46.7917 16.935C46.0691 14.7025 43.6661 13.4766 41.4335 14.1991C40.8246 14.394 40.2969 14.7268 39.8585 15.1409L27.348 6.04823C27.5997 5.50429 27.754 4.89541 27.754 4.25405C27.754 1.90783 25.8461 0 23.4999 0C21.1537 0 19.2459 1.90783 19.2459 4.25405C19.2459 4.89541 19.4001 5.49617 19.6518 6.04823L7.14128 15.1409C6.70289 14.7268 6.17519 14.394 5.56631 14.1991C3.33374 13.4766 0.930688 14.6944 0.208148 16.935C-0.514392 19.1676 0.703373 21.5707 2.94406 22.2932C3.55294 22.488 4.17806 22.5286 4.7707 22.4556L9.55246 37.1662C9.02476 37.4584 8.54577 37.8562 8.17232 38.3758C6.79219 40.2755 7.21435 42.9384 9.11406 44.3185C11.0138 45.6986 13.6766 45.2765 15.0567 43.3767C15.4383 42.8572 15.6656 42.2808 15.7793 41.6881H31.2449C31.3585 42.2808 31.594 42.8572 31.9674 43.3767C33.3476 45.2765 36.0104 45.6986 37.9101 44.3185C39.8098 42.9384 40.232 40.2755 38.8518 38.3758C38.4703 37.8562 37.9994 37.4584 37.4717 37.1662L42.2535 22.4556C42.8542 22.5286 43.4712 22.488 44.0801 22.2932C46.2964 21.5707 47.5142 19.1676 46.7917 16.935ZM38.5271 18.7617L29.9865 21.5382C28.9636 19.3137 26.8366 17.6982 24.3036 17.414V8.43504C25.0992 8.28079 25.8137 7.89923 26.382 7.36341L38.8924 16.456C38.5677 17.1624 38.4216 17.958 38.5271 18.7617ZM31.2286 40.0644H15.7549C15.6088 39.3013 15.2516 38.5706 14.6995 37.978L19.9765 30.712C21.0157 31.2965 22.2091 31.6375 23.4837 31.6375C24.7583 31.6375 25.9598 31.2965 26.9908 30.712L32.2678 37.978C31.7239 38.5706 31.3748 39.3013 31.2286 40.0644ZM20.6016 7.36341C21.1699 7.89923 21.8843 8.28079 22.6799 8.43504V17.414C20.147 17.6982 18.02 19.3137 17.0052 21.5382L8.46459 18.7617C8.56201 17.958 8.424 17.1624 8.09114 16.456L20.6016 7.36341ZM6.29697 21.9603C6.97891 21.5788 7.56344 21.0186 7.95313 20.3123L16.4937 23.0888C16.4044 23.5515 16.3557 24.0224 16.3557 24.5095C16.3557 26.5878 17.2487 28.4551 18.6694 29.7621L13.3844 37.0363C12.6456 36.6953 11.85 36.5816 11.0706 36.679L6.29697 21.9603ZM35.9049 36.6628C35.1255 36.5654 34.3299 36.679 33.5911 37.02L28.306 29.754C29.7267 28.447 30.6198 26.5797 30.6198 24.5014C30.6198 24.0143 30.5711 23.5434 30.4818 23.0807L39.0223 20.3042C39.412 21.0186 39.9965 21.5707 40.6785 21.9522L35.9049 36.6628Z" fill="#D28224"/>
</svg>
