<svg width="24" height="28" viewBox="0 0 24 28" fill="none" xmlns="http://www.w3.org/2000/svg">
<path d="M23.8822 4.91358L23.8794 4.91071L19.0713 2.47509C16.8597 1.35207 14.4299 0.791992 12 0.791992C9.57013 0.791992 7.14026 1.35207 4.92867 2.47509L0.120632 4.91071C0.045955 4.94805 0 5.02273 0 5.10602V14.9117C0 18.5364 1.98468 21.8537 5.18143 23.5771L11.8937 27.1845C11.9569 27.219 12.0431 27.219 12.1034 27.1845L18.8186 23.5771C22.0153 21.8537 24 18.5364 24 14.9117V5.10602C24 5.02273 23.954 4.94805 23.8822 4.91358ZM16.6012 11.5598L12.5572 21.2822C12.4366 21.5751 12 21.489 12 21.1759V14.8456C12 14.6876 11.8736 14.5555 11.7128 14.5555H7.663C7.46194 14.5555 7.31833 14.3487 7.39876 14.1563L11.4428 4.43393C11.5634 4.14096 12 4.23 12 4.54307V10.8734C12 11.0313 12.1264 11.1606 12.2872 11.1606H16.337C16.5381 11.1606 16.6817 11.3703 16.6012 11.5598Z" fill="#27AC7C"/>
</svg>
