<svg width="27" height="24" viewBox="0 0 27 24" fill="none" xmlns="http://www.w3.org/2000/svg">
<path d="M2.40235 4.05273H0V7.01572H2.40235V4.05273Z" fill="#9747FF"/>
<path d="M2.40235 19.6613V8.49219H0V23.8253H23.1211V21.4248H4.16582C3.19366 21.4248 2.40235 20.6335 2.40235 19.6613Z" fill="#9747FF"/>
<path d="M27 3.13877V0.462927C27 0.304591 26.8712 0.175781 26.7129 0.175781H4.16605C4.00772 0.175781 3.87891 0.304591 3.87891 0.462927V3.13877H27ZM9.92483 0.824258H11.7009C12.1083 0.824258 12.439 1.15496 12.439 1.56242C12.439 1.96989 12.1083 2.30058 11.7009 2.30058H9.92483C9.51736 2.30058 9.18667 1.96989 9.18667 1.56242C9.18667 1.15496 9.51736 0.824258 9.92483 0.824258ZM5.88117 0.824258H7.65719C8.06466 0.824258 8.39536 1.15496 8.39536 1.56242C8.39536 1.96989 8.06466 2.30058 7.65719 2.30058H5.88117C5.47371 2.30058 5.14301 1.96989 5.14301 1.56242C5.14301 1.15496 5.47334 0.824258 5.88117 0.824258Z" fill="#9747FF"/>
<path d="M3.87891 4.61523V19.6612C3.87891 19.8195 4.00772 19.9484 4.16605 19.9484H26.7129C26.8712 19.9484 27 19.8195 27 19.6612V4.61523H3.87891ZM12.7845 13.6625L12.5029 14.4944L7.8218 12.5173V11.6529L12.5025 9.67534L12.7841 10.5076L8.93754 12.0851L12.7845 13.6625ZM14.1283 17.3142H13.0989L16.7724 6.85556H17.7804L14.1283 17.3142ZM23.0571 12.5173L18.3764 14.4941L18.0948 13.6622L21.9414 12.0847L18.0948 10.5073L18.3764 9.67497L23.0571 11.6525V12.5173Z" fill="#9747FF"/>
</svg>
