<svg width="24" height="34" viewBox="0 0 24 34" fill="none" xmlns="http://www.w3.org/2000/svg">
<path d="M11.9536 24.5059C10.9171 24.5034 9.90446 24.8175 9.05127 25.4062L9.66455 26.2848C10.3435 25.8259 11.1437 25.5797 11.9632 25.5775C12.7826 25.5754 13.5841 25.8174 14.2654 26.2727L14.8672 25.3863C14.0161 24.8093 13.0107 24.5024 11.9824 24.5059H11.9536Z" fill="#94B513"/>
<path d="M7.87646 23.5637L8.46149 24.4617C9.50214 23.7893 10.7151 23.4324 11.9541 23.434H11.9789C13.213 23.4275 14.4221 23.781 15.4585 24.451L16.0435 23.553C14.8201 22.7745 13.4 22.3614 11.9499 22.3623C10.5046 22.3614 9.08993 22.7787 7.87646 23.5637Z" fill="#94B513"/>
<path d="M10.2134 27.1334L10.7649 28.0522C11.1282 27.841 11.5407 27.7291 11.9609 27.7276C12.3811 27.7261 12.7944 27.8352 13.1592 28.0439L13.7023 27.1203C13.171 26.8153 12.5687 26.6559 11.9561 26.6582C11.3435 26.6605 10.7424 26.8244 10.2134 27.1334Z" fill="#94B513"/>
<path d="M12.0002 29.8646C12.2961 29.8646 12.536 29.6247 12.536 29.3288C12.536 29.0329 12.2961 28.793 12.0002 28.793C11.7043 28.793 11.4644 29.0329 11.4644 29.3288C11.4644 29.6247 11.7043 29.8646 12.0002 29.8646Z" fill="#94B513"/>
<path d="M5.56958 15.9326C4.97064 15.9336 4.38058 16.0775 3.84845 16.3524C3.31631 16.6273 2.85746 17.0252 2.51001 17.513C2.16257 18.0009 1.93658 18.5647 1.85081 19.1574C1.76503 19.7502 1.82197 20.3549 2.01687 20.9212C2.26703 21.6601 2.74434 22.301 3.38061 22.7524C4.01687 23.2037 4.77952 23.4424 5.55957 23.4343H5.56958V19.6835C5.57004 19.2573 5.73955 18.8487 6.04092 18.5473C6.34228 18.2459 6.75088 18.0764 7.17708 18.076H16.8221C17.2483 18.0764 17.6569 18.2459 17.9582 18.5473C18.2596 18.8487 18.4291 19.2573 18.4296 19.6835V23.4343C19.5488 23.4343 20.6237 22.9965 21.4245 22.2145C22.2253 21.4326 22.6884 20.3684 22.715 19.2495C22.7218 18.2405 22.338 17.2679 21.6439 16.5356C20.1272 14.8923 18.8415 14.7265 17.6838 14.93C17.3231 13.5916 16.5017 12.4234 15.3643 11.6311C14.227 10.8387 12.8465 10.473 11.4661 10.5983C10.0856 10.7237 8.79357 11.332 7.81751 12.3163C6.84144 13.3005 6.2439 14.5975 6.13008 15.979C5.94466 15.9496 5.75731 15.9341 5.56958 15.9326Z" fill="#94B513"/>
<path d="M17.8943 32.543V19.683C17.894 19.3989 17.781 19.1264 17.5801 18.9255C17.3792 18.7246 17.1068 18.6116 16.8226 18.6113H7.17762C6.89349 18.6116 6.62107 18.7246 6.42015 18.9255C6.21924 19.1264 6.10624 19.3989 6.10596 19.683V32.543C6.10624 32.8271 6.21924 33.0995 6.42015 33.3005C6.62107 33.5014 6.89349 33.6144 7.17762 33.6147H16.8226C17.1068 33.6144 17.3792 33.5014 17.5801 33.3005C17.781 33.0995 17.894 32.8271 17.8943 32.543ZM7.17762 32.543V19.683H16.8226L16.8234 32.543H7.17762Z" fill="#94B513"/>
<path d="M11.4644 4.60435V8.96679H12.5361V4.60435C13.0412 4.47393 13.4814 4.16377 13.7742 3.73201C14.067 3.30025 14.1923 2.77652 14.1265 2.25901C14.0608 1.74149 13.8086 1.26571 13.4171 0.920858C13.0257 0.576002 12.5219 0.385742 12.0003 0.385742C11.4786 0.385742 10.9748 0.576002 10.5834 0.920858C10.192 1.26571 9.93975 1.74149 9.87402 2.25901C9.80829 2.77652 9.93356 3.30025 10.2263 3.73201C10.5191 4.16377 10.9593 4.47393 11.4644 4.60435Z" fill="#94B513"/>
<path d="M3.23194 8.45839L6.31667 11.5431L7.07437 10.7854L3.98964 7.70069C4.2546 7.2513 4.34657 6.72071 4.2483 6.20837C4.15004 5.69603 3.8683 5.23712 3.45588 4.91765C3.04346 4.59818 2.52868 4.4401 2.00805 4.47303C1.48741 4.50596 0.996652 4.72764 0.62777 5.09652C0.258888 5.4654 0.0372055 5.95616 0.00427662 6.4768C-0.0286523 6.99743 0.129433 7.51221 0.4489 7.92463C0.768367 8.33704 1.22728 8.61879 1.73962 8.71705C2.25196 8.81532 2.78255 8.72335 3.23194 8.45839Z" fill="#94B513"/>
<path d="M17.6835 11.5431L20.7682 8.45839C21.2176 8.72335 21.7482 8.81532 22.2605 8.71705C22.7729 8.61879 23.2318 8.33704 23.5513 7.92463C23.8707 7.51221 24.0288 6.99743 23.9959 6.4768C23.963 5.95616 23.7413 5.4654 23.3724 5.09652C23.0035 4.72764 22.5127 4.50596 21.9921 4.47303C21.4715 4.4401 20.9567 4.59818 20.5443 4.91765C20.1319 5.23712 19.8501 5.69603 19.7519 6.20837C19.6536 6.72071 19.7456 7.2513 20.0105 7.70069L16.9258 10.7854L17.6835 11.5431Z" fill="#94B513"/>
</svg>
