<svg width="29" height="28" viewBox="0 0 29 28" fill="none" xmlns="http://www.w3.org/2000/svg">
<path d="M28.8715 10.5264C28.4256 9.14888 26.9429 8.39249 25.5654 8.83831C25.1897 8.95853 24.8641 9.16391 24.5936 9.41938L16.8743 3.80903C17.0296 3.47341 17.1248 3.09772 17.1248 2.70199C17.1248 1.25432 15.9476 0.0771484 14.4999 0.0771484C13.0523 0.0771484 11.8751 1.25432 11.8751 2.70199C11.8751 3.09772 11.9703 3.4684 12.1256 3.80903L4.40632 9.41938C4.13583 9.16391 3.81022 8.95853 3.43453 8.83831C2.05699 8.39249 0.574254 9.14388 0.128432 10.5264C-0.317391 11.904 0.433996 13.3867 1.81655 13.8325C2.19224 13.9527 2.57795 13.9778 2.94363 13.9327L5.89407 23.0095C5.56847 23.1898 5.27292 23.4352 5.0425 23.7558C4.19093 24.928 4.45141 26.571 5.62357 27.4226C6.79573 28.2742 8.43876 28.0137 9.29033 26.8415C9.52577 26.5209 9.66603 26.1653 9.73616 25.7996H19.2788C19.3489 26.1653 19.4942 26.5209 19.7246 26.8415C20.5762 28.0137 22.2192 28.2742 23.3913 27.4226C24.5635 26.571 24.824 24.928 23.9724 23.7558C23.737 23.4352 23.4464 23.1898 23.1208 23.0095L26.0713 13.9327C26.442 13.9778 26.8227 13.9527 27.1984 13.8325C28.5659 13.3867 29.3173 11.904 28.8715 10.5264ZM23.772 11.6535L18.5023 13.3667C17.8712 11.9941 16.5587 10.9973 14.9959 10.822V5.28175C15.4868 5.18657 15.9276 4.95114 16.2782 4.62053L23.9975 10.2309C23.7971 10.6667 23.7069 11.1576 23.772 11.6535ZM19.2687 24.7978H9.72113C9.63096 24.3269 9.41055 23.8761 9.06993 23.5104L12.3259 19.0271C12.9671 19.3878 13.7035 19.5982 14.4899 19.5982C15.2764 19.5982 16.0177 19.3878 16.6539 19.0271L19.9099 23.5104C19.5743 23.8761 19.3589 24.3269 19.2687 24.7978ZM12.7116 4.62053C13.0623 4.95114 13.5031 5.18657 13.994 5.28175V10.822C12.4311 10.9973 11.1187 11.9941 10.4926 13.3667L5.22283 11.6535C5.28294 11.1576 5.19778 10.6667 4.99241 10.2309L12.7116 4.62053ZM3.88536 13.6271C4.30614 13.3917 4.6668 13.0461 4.90725 12.6103L10.177 14.3234C10.1219 14.609 10.0918 14.8995 10.0918 15.2C10.0918 16.4824 10.6428 17.6345 11.5194 18.441L8.25843 22.9293C7.80259 22.7189 7.31168 22.6488 6.8308 22.7089L3.88536 13.6271ZM22.1541 22.6989C21.6732 22.6388 21.1823 22.7089 20.7264 22.9193L17.4654 18.436C18.342 17.6295 18.893 16.4774 18.893 15.195C18.893 14.8945 18.863 14.6039 18.8079 14.3184L24.0776 12.6053C24.3181 13.0461 24.6787 13.3867 25.0995 13.6221L22.1541 22.6989Z" fill="#D28224"/>
</svg>
