<svg width="138" height="18" viewBox="0 0 138 18" fill="none" xmlns="http://www.w3.org/2000/svg">
<path d="M59.912 11.7547H68.9744L64.1825 4.04523L55.3877 17.9843H51.385L62.0825 1.24051C62.5476 0.563993 63.3227 0.155273 64.1825 0.155273C65.014 0.155273 65.7892 0.549906 66.2402 1.21232L76.9799 17.9843H72.9772L71.0886 14.8695H61.9133L59.912 11.7547ZM101.49 14.8695V0.324403H98.0929V16.293C98.0929 16.7299 98.262 17.1527 98.5862 17.4769C98.9103 17.8011 99.3472 17.9843 99.8264 17.9843H115.316L117.317 14.8695H101.49ZM45.2964 12.2621C48.5945 12.2621 51.2724 9.59831 51.2724 6.30029C51.2724 3.00228 48.5945 0.324403 45.2964 0.324403H30.437V17.9843H33.8323V3.4392H45.0709C46.6495 3.4392 47.9179 4.72175 47.9179 6.30029C47.9179 7.87883 46.6495 9.16139 45.0709 9.16139L35.4954 9.14729L45.6346 17.9843H50.5676L43.7461 12.2621H45.2964ZM9.53553 17.9843C4.66034 17.9843 0.704102 14.0379 0.704102 9.16139C0.704102 4.28483 4.66034 0.324403 9.53553 0.324403H19.8002C24.6767 0.324403 28.6301 4.28483 28.6301 9.16139C28.6301 14.0379 24.6767 17.9843 19.8002 17.9843H9.53553ZM19.5719 14.8695C22.7304 14.8695 25.2885 12.3185 25.2885 9.16139C25.2885 6.00431 22.7304 3.4392 19.5719 3.4392H9.7624C6.60532 3.4392 4.04578 6.00431 4.04578 9.16139C4.04578 12.3185 6.60532 14.8695 9.7624 14.8695H19.5719ZM84.0692 17.9843C79.1926 17.9843 75.2323 14.0379 75.2323 9.16139C75.2323 4.28483 79.1926 0.324403 84.0692 0.324403H96.2606L94.2733 3.4392H84.2947C81.1376 3.4392 78.5726 6.00431 78.5726 9.16139C78.5726 12.3185 81.1376 14.8695 84.2947 14.8695H96.5424L94.5411 17.9843H84.0692ZM125.604 14.8695C122.997 14.8695 120.784 13.1218 120.108 10.7117H134.625L136.626 7.59694H120.108C120.784 5.20095 122.997 3.4392 125.604 3.4392H135.569L137.584 0.324403H125.379C120.502 0.324403 116.542 4.28483 116.542 9.16139C116.542 14.0379 120.502 17.9843 125.379 17.9843H135.851L137.852 14.8695H125.604Z" fill="#EA1B22"/>
</svg>
