<svg width="138" height="30" viewBox="0 0 138 30" fill="none" xmlns="http://www.w3.org/2000/svg">
<path d="M136.385 10.7539C137.46 11.6238 136.322 12.9998 135.373 12.304C134.202 11.5606 131.545 11.2127 131.213 12.8575C130.786 15.4514 137.666 13.9647 137.555 18.1717C137.445 22.1892 131.624 22.2841 129.442 20.481C128.92 20.054 128.936 19.358 129.22 18.9309C129.631 18.5198 130.09 18.3774 130.628 18.8202C131.925 19.706 135.262 20.3703 135.499 18.1244C135.294 15.7835 128.714 17.1912 129.204 12.6994C129.568 9.63099 134.202 9.07736 136.385 10.7539ZM126.009 11.3707V17.0963C126.009 23.0116 116.472 23.0116 116.472 17.0963V11.3707C116.472 9.94737 118.544 9.88405 118.544 11.3707V17.0963C118.544 20.2121 123.937 20.4019 123.937 17.0963V11.3707C123.937 9.96308 126.009 9.85238 126.009 11.3707ZM60.7014 9.93154C63.4692 10.0738 66.3636 11.9876 66.3636 15.7361C66.3636 19.4845 63.4692 21.43 60.7014 21.43C57.7753 21.5565 54.7386 19.6111 54.7386 15.7361C54.7386 11.8452 57.7753 9.93154 60.7014 9.93154ZM74.6359 10.3268C78.6533 10.3268 79.4757 15.7045 76.1227 17.0488L78.2262 19.6111C79.0486 20.829 77.4037 21.9993 76.4548 20.7973L74.0665 17.381H71.5833V20.2437C71.5833 21.6197 69.4797 21.6672 69.4797 20.2754V11.2917C69.4797 10.7381 69.9068 10.3268 70.4288 10.3268H74.6359ZM41.8635 10.1846C42.3222 10.1846 42.5911 10.4535 42.86 10.7539L46.3395 15.4514L49.9457 10.5799C50.4676 9.93155 51.7488 10.1846 51.7488 11.2759V20.1805C51.7488 20.8764 51.3059 21.2718 50.7998 21.2718C50.2304 21.2718 49.7875 20.8764 49.7875 20.1805V14.3285L47.162 17.6499C46.5926 18.3458 45.8809 18.3458 45.3589 17.6499L43.0023 14.3285V20.1805C43.0023 20.8764 42.4329 21.2718 41.8635 21.2718C41.3574 21.2718 40.9146 20.8764 40.9146 20.1805V11.2759C40.9146 10.4535 41.6105 10.1846 41.8635 10.1846ZM86.1031 10.1846C88.1593 10.1846 90.0098 11.5606 90.0098 14.2019C90.0098 16.7009 88.1593 18.0927 86.1031 18.0927H83.4618V20.1805C83.4618 20.8764 83.0189 21.2718 82.4495 21.2718C81.9276 21.2718 81.374 20.8764 81.374 20.1805V11.2759C81.374 10.7539 81.7853 10.1846 82.4495 10.1846H86.1031ZM101.208 10.3268C101.762 10.3268 102.189 10.7381 102.189 11.3075V20.2912C102.189 20.8447 101.762 21.2718 101.208 21.2718C100.639 21.2718 100.133 20.8447 100.133 20.2912V16.8274H94.9766V20.2912C94.9766 20.8447 94.5654 21.2718 94.0118 21.2718C93.3001 21.2718 92.8888 20.8447 92.8888 20.2912V11.3075C92.8888 10.7381 93.3001 10.3268 94.0118 10.3268C94.5654 10.3268 94.9766 10.7381 94.9766 11.3075V14.7555H100.133V11.3075C100.133 10.7381 100.639 10.3268 101.208 10.3268ZM112.217 10.3268C113.672 10.3268 113.64 12.383 112.217 12.383H107.662V14.7555H111.647C113.055 14.7555 113.055 16.8274 111.647 16.8274H107.662V19.1998H112.486C113.925 19.1998 114.036 21.2718 112.486 21.2718H106.539C105.985 21.2718 105.558 20.8447 105.558 20.2912V11.3075C105.558 10.7381 105.985 10.3268 106.539 10.3268H112.217ZM60.5273 11.9876C58.7559 11.9876 56.8263 13.2372 56.8263 15.7361C56.8263 18.2192 58.7559 19.4845 60.5273 19.4845C62.3463 19.4845 64.2917 18.2192 64.2917 15.7361C64.2917 13.2372 62.3463 11.9876 60.5273 11.9876ZM86.1031 12.1774H83.4618V16.1157H86.1031C87.1628 16.1157 88.0011 15.1825 88.0011 14.2019C88.0011 13.0948 87.1628 12.1774 86.1031 12.1774ZM74.6359 12.2406H71.5833V15.5621H74.6359C76.692 15.5621 76.8185 12.2406 74.6359 12.2406Z" fill="#3DB5E6"/>
<path d="M28.3682 18.6302C26.8262 24.8252 21.1843 29.2327 14.5395 29.2327C7.86456 29.2327 2.27128 24.5643 0.79248 18.3437C2.57066 18.3437 4.23299 18.3518 5.00474 18.3518C5.3688 18.3518 5.4395 18.3582 5.46056 18.3566C6.04125 18.3281 6.76937 18.1364 7.25378 16.9585L9.09965 12.1299L13.1991 22C13.5677 22.7868 14.1829 22.7311 14.55 22.7311H14.5846C15.3007 22.7311 15.6121 22.4801 15.8844 21.9611L20.5149 12.2039L22.0945 16.6013L22.1907 16.8142C22.5247 17.5468 22.765 18.2705 23.5915 18.365C23.7618 18.3845 25.7404 18.35 28.4076 18.35C28.4076 18.35 28.4076 18.3671 28.3682 18.6302Z" fill="#3DB5E6"/>
<path d="M28.8209 14.9814C28.8209 15.0551 28.8209 15.2405 28.8194 15.2405H28.8164H24.5591L22.0753 8.30221C21.8541 7.78621 21.5217 7.01265 20.5528 7.01265C19.9601 7.01265 19.4245 7.50217 19.1207 8.31002L14.6181 18.7394L10.2839 8.37328C9.85971 7.45261 9.56637 7.01961 8.7179 7.01961C8.14172 7.01961 7.71899 7.23185 7.25865 8.32252L4.68616 15.3435L0.412223 15.339C0.409212 15.2322 0.407715 15.1254 0.407715 15.0186C0.407715 7.21391 6.73513 0.90625 14.5398 0.90625C22.3445 0.90625 28.8209 7.17668 28.8209 14.9814Z" fill="#D8292F"/>
</svg>
