<svg width="27" height="28" viewBox="0 0 27 28" fill="none" xmlns="http://www.w3.org/2000/svg">
<path d="M22.1782 10.1438C21.7329 10.1438 21.3159 10.2532 20.9387 10.4337L20.011 9.50602C20.1563 9.10045 20.2496 8.6701 20.2496 8.21526C20.2496 7.76043 20.1563 7.33008 20.011 6.92451L20.9387 5.99683C21.3159 6.17728 21.7329 6.28669 22.1782 6.28669C23.7734 6.28669 25.071 4.98905 25.071 3.39383C25.071 1.79862 23.7734 0.500977 22.1782 0.500977C20.5829 0.500977 19.2853 1.79862 19.2853 3.39383C19.2853 3.83907 19.3947 4.25612 19.5752 4.63327L18.8999 5.30857C18.2237 4.72443 17.354 4.35812 16.3924 4.35812C15.4309 4.35812 14.5612 4.72443 13.885 5.30857L13.2097 4.63327C13.3902 4.25612 13.4996 3.83907 13.4996 3.39383C13.4996 1.79862 12.2019 0.500977 10.6067 0.500977C9.01151 0.500977 7.71387 1.79862 7.71387 3.39383C7.71387 4.98905 9.01151 6.28669 10.6067 6.28669C11.052 6.28669 11.469 6.17728 11.8462 5.99683L12.7738 6.92451C12.6286 7.33008 12.5353 7.76043 12.5353 8.21526C12.5353 8.6701 12.6286 9.10045 12.7738 9.50602L11.8462 10.4337C11.469 10.2532 11.052 10.1438 10.6067 10.1438C9.01151 10.1438 7.71387 11.4415 7.71387 13.0367C7.71387 14.6319 9.01151 15.9295 10.6067 15.9295C12.2019 15.9295 13.4996 14.6319 13.4996 13.0367C13.4996 12.5914 13.3902 12.1744 13.2097 11.7973L13.885 11.122C14.5612 11.7061 15.4309 12.0724 16.3924 12.0724C17.354 12.0724 18.2237 11.7061 18.8999 11.122L19.5752 11.7973C19.3947 12.1744 19.2853 12.5914 19.2853 13.0367C19.2853 14.6319 20.5829 15.9295 22.1782 15.9295C23.7734 15.9295 25.071 14.6319 25.071 13.0367C25.071 11.4415 23.7734 10.1438 22.1782 10.1438Z" fill="#1372C9"/>
<path d="M1.92857 14.9648H0V26.5363H1.92857C2.46115 26.5363 2.89286 26.1045 2.89286 25.572V15.9291C2.89286 15.3965 2.46115 14.9648 1.92857 14.9648Z" fill="#1372C9"/>
<path d="M25.8947 16.2552C25.1983 15.839 24.3546 15.8211 23.6417 16.2062L17.3271 19.6007C17.1797 20.7899 16.1744 21.7162 14.9462 21.7162H11.0698C10.8033 21.7162 10.5876 21.5006 10.5876 21.2341C10.5876 20.9677 10.8033 20.752 11.0698 20.752H14.9462C15.7438 20.752 16.3926 20.1033 16.3926 19.3058C16.3926 18.5234 15.7672 17.888 14.9905 17.864C14.7019 17.8607 10.0419 17.8596 10.0419 17.8596L8.39586 16.2137C8.21505 16.0329 7.96974 15.9313 7.71408 15.9313H3.85693V25.5747H5.5595L8.67836 26.537C9.97412 26.9536 11.36 27.5011 12.8957 27.5011C14.2842 27.5011 15.6525 27.0407 16.8334 26.1359L26.0167 20.0581C26.6321 19.6363 26.9998 18.9396 26.9998 18.1957C26.9998 17.3925 26.5869 16.6676 25.8947 16.2552Z" fill="#1372C9"/>
</svg>
