<svg width="32" height="32" viewBox="0 0 32 32" fill="none" xmlns="http://www.w3.org/2000/svg">
<g clip-path="url(#clip0_28_1656)">
<path d="M20.5488 18.168C20.6872 18.0758 20.8465 18.0197 21.0122 18.0046C21.1779 17.9895 21.3447 18.016 21.4975 18.0817L27.3925 20.723C27.5912 20.8079 27.757 20.9548 27.8651 21.1419C27.9733 21.3289 28.018 21.5459 27.9925 21.7605C27.7983 23.2118 27.0836 24.5432 25.9813 25.507C24.8791 26.4709 23.4642 27.0016 22 27.0005C17.4913 27.0005 13.1673 25.2094 9.97919 22.0213C6.79107 18.8332 5 14.5091 5 10.0005C4.99888 8.53622 5.5296 7.1214 6.49345 6.01913C7.45731 4.91686 8.78869 4.20216 10.24 4.00796C10.4545 3.98247 10.6716 4.02715 10.8586 4.13531C11.0456 4.24347 11.1926 4.4093 11.2775 4.60796L13.9188 10.508C13.9836 10.6595 14.0101 10.8247 13.9957 10.9889C13.9813 11.1532 13.9265 11.3113 13.8363 11.4492L11.165 14.6255C11.0702 14.7684 11.0142 14.9336 11.0024 15.1047C10.9906 15.2758 11.0233 15.4471 11.0975 15.6017C12.1313 17.718 14.3188 19.8792 16.4413 20.903C16.5967 20.9768 16.7688 21.0089 16.9404 20.9959C17.112 20.983 17.2773 20.9255 17.42 20.8292L20.5488 18.168Z" stroke="#434E4F" stroke-width="3" stroke-linecap="round" stroke-linejoin="round"/>
</g>
<defs>
<clipPath id="clip0_28_1656">
<rect width="32" height="32" fill="white"/>
</clipPath>
</defs>
</svg>
