<svg width="16" height="16" viewBox="0 0 16 16" fill="none" xmlns="http://www.w3.org/2000/svg">
<path d="M8 0C6.41775 0 4.87103 0.469192 3.55544 1.34824C2.23985 2.22729 1.21447 3.47672 0.608967 4.93853C0.00346623 6.40034 -0.15496 8.00887 0.153721 9.56072C0.462403 11.1126 1.22433 12.538 2.34315 13.6568C3.46197 14.7757 4.88743 15.5376 6.43928 15.8463C7.99113 16.155 9.59966 15.9965 11.0615 15.391C12.5233 14.7855 13.7727 13.7602 14.6518 12.4446C15.5308 11.129 16 9.58225 16 8C15.9975 5.87902 15.1539 3.84563 13.6541 2.34587C12.1544 0.846118 10.121 0.00247015 8 0ZM10.5364 8.31422L6.53645 12.3142C6.45262 12.3952 6.34036 12.44 6.22382 12.439C6.10729 12.438 5.99582 12.3912 5.91342 12.3088C5.83101 12.2264 5.78427 12.1149 5.78326 11.9984C5.78225 11.8819 5.82704 11.7696 5.908 11.6858L9.59378 8L5.908 4.31422C5.82704 4.2304 5.78225 4.11813 5.78326 4.0016C5.78427 3.88507 5.83101 3.77359 5.91342 3.69119C5.99582 3.60879 6.10729 3.56205 6.22382 3.56103C6.34036 3.56002 6.45262 3.60482 6.53645 3.68578L10.5364 7.68577C10.6198 7.76912 10.6666 7.88215 10.6666 8C10.6666 8.11785 10.6198 8.23087 10.5364 8.31422Z" fill="#0E8087"/>
</svg>
