<svg width="34" height="35" viewBox="0 0 34 35" fill="none" xmlns="http://www.w3.org/2000/svg">
<path d="M13.9961 18.2837L16.0049 19.3476V17.6164L13.9961 16.6123V18.2837Z" fill="#D05C5C"/>
<path d="M31.0038 14.0039C30.3838 14.0048 29.7794 14.1976 29.2734 14.5559C28.7675 14.9141 28.3849 15.4202 28.1782 16.0047H25.9437C25.7558 14.3138 25.0904 12.7114 24.0252 11.3849L25.609 9.8011C26.2468 10.1066 26.9722 10.1766 27.6567 9.99886C28.3412 9.8211 28.9408 9.40698 29.3494 8.82975C29.7581 8.25252 29.9494 7.54937 29.8896 6.84468C29.8297 6.13998 29.5226 5.47915 29.0225 4.97906C28.5225 4.47898 27.8616 4.17186 27.1569 4.11204C26.4522 4.05221 25.7491 4.24353 25.1719 4.65216C24.5946 5.06079 24.1805 5.66039 24.0027 6.34492C23.825 7.02944 23.895 7.75478 24.2005 8.39263L22.6167 9.97641C21.2902 8.91121 19.6878 8.24577 17.9969 8.05795V5.8234C18.6639 5.58834 19.2263 5.12497 19.5846 4.51523C19.9429 3.9055 20.074 3.1887 19.9548 2.49161C19.8356 1.79452 19.4736 1.16206 18.933 0.706081C18.3924 0.250106 17.708 0 17.0008 0C16.2936 0 15.6092 0.250106 15.0686 0.706081C14.528 1.16206 14.1661 1.79452 14.0468 2.49161C13.9276 3.1887 14.0587 3.9055 14.417 4.51523C14.7753 5.12497 15.3377 5.58834 16.0047 5.8234V8.05795C14.3138 8.24577 12.7114 8.91121 11.3849 9.97641L9.8011 8.39263C10.1057 7.75573 10.1753 7.03164 9.99754 6.34838C9.81981 5.66513 9.40621 5.06672 8.82988 4.65897C8.25355 4.25121 7.5516 4.06037 6.84815 4.12019C6.1447 4.18001 5.48505 4.48663 4.98584 4.98584C4.48663 5.48505 4.18001 6.1447 4.12019 6.84815C4.06037 7.5516 4.25121 8.25355 4.65897 8.82988C5.06672 9.40621 5.66513 9.81981 6.34838 9.99754C7.03164 10.1753 7.75573 10.1057 8.39263 9.8011L9.97641 11.3849C8.91121 12.7114 8.24577 14.3138 8.05795 16.0047H5.8234C5.58834 15.3377 5.12497 14.7753 4.51523 14.417C3.9055 14.0587 3.1887 13.9276 2.49161 14.0468C1.79452 14.1661 1.16206 14.528 0.706081 15.0686C0.250106 15.6092 0 16.2936 0 17.0008C0 17.708 0.250106 18.3924 0.706081 18.933C1.16206 19.4736 1.79452 19.8356 2.49161 19.9548C3.1887 20.074 3.9055 19.9429 4.51523 19.5846C5.12497 19.2263 5.58834 18.6639 5.8234 17.9969H8.05795C8.24577 19.6878 8.91121 21.2902 9.97641 22.6167L8.39263 24.2005C7.75478 23.895 7.02944 23.825 6.34492 24.0027C5.66039 24.1805 5.06079 24.5946 4.65216 25.1719C4.24353 25.7491 4.05221 26.4522 4.11204 27.1569C4.17186 27.8616 4.47898 28.5225 4.97906 29.0225C5.47915 29.5226 6.13998 29.8297 6.84468 29.8896C7.54937 29.9494 8.25252 29.7581 8.82975 29.3494C9.40698 28.9408 9.8211 28.3412 9.99886 27.6567C10.1766 26.9722 10.1066 26.2468 9.8011 25.609L11.3849 24.0252C12.7114 25.0904 14.3138 25.7558 16.0047 25.9437V28.1782C15.3377 28.4133 14.7753 28.8766 14.417 29.4864C14.0587 30.0961 13.9276 30.8129 14.0468 31.51C14.1661 32.2071 14.528 32.8396 15.0686 33.2955C15.6092 33.7515 16.2936 34.0016 17.0008 34.0016C17.708 34.0016 18.3924 33.7515 18.933 33.2955C19.4736 32.8396 19.8356 32.2071 19.9548 31.51C20.074 30.8129 19.9429 30.0961 19.5846 29.4864C19.2263 28.8766 18.6639 28.4133 17.9969 28.1782V25.9437C19.6878 25.7558 21.2902 25.0904 22.6167 24.0252L24.2005 25.609C23.895 26.2468 23.825 26.9722 24.0027 27.6567C24.1805 28.3412 24.5946 28.9408 25.1719 29.3494C25.7491 29.7581 26.4522 29.9494 27.1569 29.8896C27.8616 29.8297 28.5225 29.5226 29.0225 29.0225C29.5226 28.5225 29.8297 27.8616 29.8896 27.1569C29.9494 26.4522 29.7581 25.7491 29.3494 25.1719C28.9408 24.5946 28.3412 24.1805 27.6567 24.0027C26.9722 23.825 26.2468 23.895 25.609 24.2005L24.0252 22.6167C25.0904 21.2902 25.7558 19.6878 25.9437 17.9969H28.1782C28.361 18.515 28.6827 18.9729 29.1081 19.3205C29.5336 19.668 30.0464 19.892 30.5906 19.9677C31.1347 20.0435 31.6892 19.9682 32.1935 19.7501C32.6977 19.5319 33.1322 19.1793 33.4496 18.7309C33.7669 18.2824 33.9549 17.7553 33.9928 17.2072C34.0308 16.6592 33.9174 16.1112 33.6649 15.6232C33.4124 15.1353 33.0306 14.7262 32.5613 14.4406C32.092 14.155 31.5532 14.0039 31.0038 14.0039ZM26.1927 6.38851C26.3332 6.24793 26.5122 6.15218 26.7071 6.11335C26.902 6.07453 27.1041 6.09439 27.2877 6.17042C27.4713 6.24644 27.6283 6.37522 27.7387 6.54046C27.8491 6.7057 27.9081 6.89998 27.9081 7.09872C27.9081 7.29746 27.8491 7.49174 27.7387 7.65698C27.6283 7.82222 27.4713 7.951 27.2877 8.02702C27.1041 8.10305 26.902 8.1229 26.7071 8.08408C26.5122 8.04526 26.3332 7.94951 26.1927 7.80893C26.0993 7.71573 26.0252 7.60503 25.9747 7.48316C25.9241 7.36129 25.8981 7.23065 25.8981 7.09872C25.8981 6.96678 25.9241 6.83614 25.9747 6.71428C26.0252 6.59241 26.0993 6.48171 26.1927 6.38851ZM7.80893 7.80893C7.66848 7.94928 7.48957 8.04484 7.29483 8.08353C7.10008 8.12222 6.89823 8.10229 6.7148 8.02628C6.53137 7.95027 6.3746 7.82157 6.2643 7.65647C6.15401 7.49137 6.09514 7.29727 6.09514 7.09872C6.09514 6.90016 6.15401 6.70607 6.2643 6.54097C6.3746 6.37586 6.53137 6.24717 6.7148 6.17116C6.89823 6.09514 7.10008 6.07522 7.29483 6.11391C7.48957 6.1526 7.66848 6.24816 7.80893 6.38851C7.99704 6.577 8.10269 6.83242 8.10269 7.09872C8.10269 7.36502 7.99704 7.62044 7.80893 7.80893ZM2.99784 18.0055C2.79909 18.0057 2.60478 17.9468 2.43946 17.8365C2.27415 17.7262 2.14527 17.5693 2.06912 17.3858C1.99298 17.2022 1.97299 17.0001 2.01168 16.8052C2.05037 16.6103 2.14601 16.4312 2.28649 16.2906C2.42698 16.15 2.606 16.0543 2.80092 16.0154C2.99583 15.9766 3.19788 15.9965 3.38151 16.0725C3.56513 16.1485 3.72209 16.2773 3.83252 16.4425C3.94295 16.6078 4.00189 16.8021 4.00189 17.0008C4.00154 17.267 3.89566 17.5223 3.70746 17.7106C3.51926 17.899 3.26408 18.005 2.99784 18.0055ZM7.80893 27.6131C7.66844 27.7537 7.48942 27.8494 7.29451 27.8883C7.09959 27.9271 6.89754 27.9072 6.71391 27.8312C6.53029 27.7552 6.37333 27.6264 6.2629 27.4611C6.15248 27.2959 6.09353 27.1016 6.09353 26.9029C6.09353 26.7041 6.15248 26.5099 6.2629 26.3446C6.37333 26.1794 6.53029 26.0506 6.71391 25.9746C6.89754 25.8986 7.09959 25.8787 7.29451 25.9175C7.48942 25.9563 7.66844 26.0521 7.80893 26.1927C7.99721 26.3811 8.10297 26.6365 8.10297 26.9029C8.10297 27.1692 7.99721 27.4247 7.80893 27.6131ZM15.9961 2.99717C15.9961 2.79846 16.055 2.60421 16.1654 2.43898C16.2758 2.27376 16.4327 2.14498 16.6163 2.06893C16.7999 1.99289 17.0019 1.97299 17.1968 2.01176C17.3917 2.05053 17.5707 2.14622 17.7112 2.28673C17.8518 2.42724 17.9475 2.60626 17.9862 2.80116C18.025 2.99606 18.0051 3.19807 17.929 3.38166C17.853 3.56525 17.7242 3.72216 17.559 3.83256C17.3938 3.94296 17.1995 4.00189 17.0008 4.00189C16.7344 4.00154 16.4791 3.89557 16.2907 3.70723C16.1024 3.51888 15.9964 3.26353 15.9961 2.99717ZM18.0055 31.0038C18.0057 31.2025 17.9468 31.3968 17.8365 31.5621C17.7262 31.7275 17.5693 31.8563 17.3858 31.9325C17.2022 32.0086 17.0001 32.0286 16.8052 31.9899C16.6103 31.9512 16.4312 31.8556 16.2906 31.7151C16.15 31.5746 16.0543 31.3956 16.0154 31.2007C15.9766 31.0058 15.9965 30.8037 16.0725 30.6201C16.1485 30.4365 16.2773 30.2795 16.4425 30.1691C16.6078 30.0587 16.8021 29.9997 17.0008 29.9997C17.267 30.0001 17.5223 30.1059 17.7106 30.2941C17.899 30.4823 18.005 30.7375 18.0055 31.0038ZM21.9978 18.8834C21.9978 19.0646 21.9482 19.2424 21.8546 19.3975C21.761 19.5527 21.6269 19.6794 21.4666 19.7639L17.4763 21.8763H17.471L17.4656 21.8796L17.4563 21.8836C17.4265 21.8989 17.3959 21.9128 17.364 21.9254L17.3368 21.9354C17.3103 21.9447 17.283 21.9533 17.2558 21.9606L17.2246 21.9686C17.197 21.9751 17.169 21.9802 17.1409 21.9839L17.1124 21.9885C17.0374 21.9974 16.9616 21.9974 16.8866 21.9885L16.858 21.9839C16.8299 21.9802 16.802 21.9751 16.7744 21.9686L16.7431 21.9606C16.7159 21.9533 16.6887 21.9447 16.6621 21.9354L16.6349 21.9254C16.603 21.9128 16.5725 21.8989 16.5426 21.8836L16.5333 21.8796L16.528 21.8763H16.5227L12.5324 19.7639C12.3721 19.6794 12.2379 19.5527 12.1443 19.3975C12.0507 19.2424 12.0012 19.0646 12.0011 18.8834V15C12.0011 14.9867 12.0011 14.9728 12.0011 14.9588C12.0011 14.9449 12.0011 14.9402 12.0011 14.9309C12.0026 14.9045 12.0055 14.8781 12.0098 14.8519L12.0157 14.82C12.0193 14.801 12.0233 14.7817 12.0277 14.7623C12.0277 14.753 12.0323 14.7437 12.035 14.7344C12.0423 14.7071 12.0509 14.6806 12.0609 14.654C12.0609 14.648 12.0655 14.6421 12.0682 14.6361C12.0775 14.6122 12.0874 14.5896 12.0981 14.5697L12.1034 14.5577L12.1074 14.5504C12.1207 14.5243 12.1353 14.4988 12.1512 14.4741C12.1546 14.4679 12.1583 14.4619 12.1625 14.4561C12.1751 14.4375 12.1877 14.419 12.2017 14.401L12.2196 14.3778C12.2362 14.3572 12.2541 14.3366 12.2727 14.3167L12.2913 14.2988C12.3053 14.2841 12.3199 14.2709 12.3345 14.2576L12.3597 14.2357C12.3756 14.2224 12.3922 14.2098 12.4095 14.1978C12.4152 14.193 12.4212 14.1886 12.4274 14.1845C12.4488 14.1688 12.471 14.1541 12.4938 14.1407L12.5178 14.1274C12.5277 14.1228 12.537 14.1168 12.5463 14.1122L16.5473 12.1114C16.6856 12.0422 16.8382 12.0061 16.9928 12.0061C17.1475 12.0061 17.3001 12.0422 17.4384 12.1114L21.45 14.1095L21.4779 14.1248L21.5024 14.1381C21.5264 14.152 21.5489 14.1659 21.5689 14.1812L21.5881 14.1958C21.6047 14.2078 21.6206 14.2204 21.6359 14.233L21.6618 14.2549C21.6764 14.2682 21.691 14.2815 21.705 14.2954L21.7236 14.314C21.7428 14.334 21.7601 14.3545 21.7767 14.3751L21.7946 14.3984C21.8086 14.4163 21.8212 14.4349 21.8338 14.4541C21.8379 14.4594 21.8417 14.465 21.8451 14.4707C21.861 14.496 21.8756 14.5219 21.8889 14.5484L21.8929 14.5551C21.8929 14.5584 21.8929 14.5624 21.8976 14.5664C21.9088 14.5889 21.9188 14.6129 21.9288 14.6368L21.9354 14.6534C21.9454 14.6801 21.9541 14.7074 21.9613 14.735C21.9613 14.7437 21.966 14.753 21.9679 14.7616C21.9732 14.7811 21.9774 14.8008 21.9806 14.8207L21.9865 14.8513C21.9905 14.8778 21.9938 14.9044 21.9952 14.9309C21.9952 14.9402 21.9952 14.9495 21.9952 14.9588C21.9952 14.9681 21.9952 14.9861 21.9952 15L21.9978 18.8834ZM26.1927 26.1927C26.3569 26.0281 26.5731 25.9256 26.8044 25.9026C27.0358 25.8796 27.2679 25.9375 27.4614 26.0665C27.6548 26.1955 27.7975 26.3876 27.8651 26.61C27.9328 26.8324 27.9212 27.0714 27.8324 27.2863C27.7435 27.5011 27.5829 27.6785 27.378 27.7882C27.173 27.8979 26.9363 27.9331 26.7083 27.8879C26.4802 27.8426 26.275 27.7197 26.1274 27.54C25.9799 27.3603 25.8992 27.135 25.8992 26.9026C25.8987 26.7707 25.9244 26.64 25.9747 26.5182C26.0251 26.3963 26.0992 26.2857 26.1927 26.1927ZM31.0038 18.0055C30.8051 18.0055 30.6108 17.9466 30.4456 17.8362C30.2804 17.7258 30.1516 17.5689 30.0755 17.3853C29.9995 17.2017 29.9796 16.9997 30.0184 16.8048C30.0571 16.6099 30.1528 16.4309 30.2933 16.2904C30.4338 16.1498 30.6129 16.0542 30.8078 16.0154C31.0027 15.9766 31.2047 15.9965 31.3883 16.0726C31.5718 16.1486 31.7288 16.2774 31.8392 16.4426C31.9496 16.6078 32.0085 16.8021 32.0085 17.0008C32.0081 17.2672 31.9022 17.5225 31.7138 17.7109C31.5255 17.8992 31.2701 18.0052 31.0038 18.0055Z" fill="#D05C5C"/>
<path d="M17.9971 19.3476L20.0058 18.2837V16.6123L17.9971 17.6164V19.3476Z" fill="#D05C5C"/>
<path d="M17.0007 14.1133L15.2271 15.0005L17.0007 15.887L18.7744 15.0005L17.0007 14.1133Z" fill="#D05C5C"/>
</svg>
